<?xml version="1.0"?>
<svg width="512" height="512" xmlns="http://www.w3.org/2000/svg" xmlns:svg="http://www.w3.org/2000/svg" xmlns:se="http://svg-edit.googlecode.com" data-name="Layer 1">
 <defs>
  <style>.cls-1{fill:#8EA604;}</style>
 </defs>
 <title>martini-handdrawn</title>
 <g class="layer">
  <title>Layer 1</title>
  <path class="cls-1" d="m503.47,85.44a79.36,79.36 0 0 0 -1.32,-13.19c-0.57,-2.35 -1.32,-5.39 -2.14,-8.15l-2.39,-6.65c-4.52,-12.77 -14.5,-26.72 -26.87,-36.2a84,84 0 0 0 -27.6,-14.41c0.67,-0.16 3.88,0.57 3.47,0.07c-0.43,-0.31 -4.31,-3 -19,-5.23l3,-0.4a93.4,93.4 0 0 0 -28.73,-0.28a77.76,77.76 0 0 0 -27.71,9c-4.13,2.35 -5.23,3.63 -7.66,5.37l0.86,-0.3c-7.6,4.72 -15.82,12.49 -19.89,17.08a88.6,88.6 0 0 0 -12.75,18.85l-16.13,-0.12c-27.51,-0.57 -72.19,-0.75 -106.76,-0.3l-20.46,0.07l-107.05,0l-11.54,0l-10.08,0l-1.92,0.12a53.72,53.72 0 0 0 -29.28,9.6c-17.31,12 -26.42,34.2 -21.79,55.17a51.29,51.29 0 0 0 12.06,23.67c1.52,1.86 2.5,2.87 3.63,4.15l3.34,3.71l6.67,7.41l25.62,28.64c25.45,28.63 49.95,56 76,84.43l7.43,8.28c15.42,17.89 20.67,22.62 30.78,33.67a58.6,58.6 0 0 0 7.06,6.84c1,0.82 -2,-2.85 -0.31,-1.23l9.39,9.41l2.29,2.27l2.32,2.1c1.19,1 1.56,1.23 0.6,0.17c-2.37,-2.79 -1.06,-1.37 2.36,1.29a43.83,43.83 0 0 0 12.29,6.65c-0.08,4.21 -0.07,8.47 -0.15,12.68c0,1.67 0,3.4 0,5.11l0.18,0.57l1.92,-16.05l-0.1,-1l0.46,1c0,-0.54 0,-1 0,-1.55c0.25,0.07 0.49,0.17 0.73,0.23c-0.25,-0.08 -0.48,-0.18 -0.73,-0.26l0,-1.54c0.57,0.16 1.09,0.32 1.75,0.48a42.38,42.38 0 0 0 15.86,0.79c0,1 0.05,1.92 0.07,2.78a33.51,33.51 0 0 1 -0.26,6.37a26.81,26.81 0 0 0 -0.34,5.38c0,1.15 0,2.31 -0.07,3.47l-0.15,0l-0.13,-10.46c-0.11,2.26 -0.11,4.41 -0.11,6.54c0,5.2 0,10.45 -0.05,15.59c-0.07,4.07 -0.78,9.31 -1.35,6.9c-0.43,-1.8 -0.8,-4.42 -1.19,-6.82c0,-0.31 0,-1.46 0,-2.23l0.34,0.29l-0.35,-5l-0.25,3c-0.26,0.1 -0.46,0.29 -0.65,0.21c-0.53,-0.23 -1.11,1 -1.54,-2.65a32.65,32.65 0 0 0 -0.54,-4.18c-0.29,-0.51 -0.28,-1.27 -0.3,-3a31.65,31.65 0 0 0 -0.31,-4.56c-0.21,-0.75 -0.51,-0.07 -0.85,0l-0.13,-1.36c0,2.64 0,4.4 -0.06,6.13l0.39,0.48c-0.1,2.79 -0.25,5.27 -0.27,7.81s0.1,5.14 0.17,8.2l-0.25,-1.19c0,1.47 -0.09,2.71 -0.12,3.75a4.47,4.47 0 0 0 -0.8,1.4a14.77,14.77 0 0 0 -0.26,2.81c0.22,5.47 -0.17,10.5 -0.16,15.78c0,1.29 0,2.73 0,3.83c0.34,5.73 0.31,12.09 0.52,18.07c0.26,7.49 0.47,15 0.92,22c0.17,2.65 0.24,6.45 0.89,5.76c0.35,-0.38 0.37,0.59 0.27,4c0,0.83 0,1.74 0,2.62q0,9.92 0,19.84c0,1 -0.12,1.94 -0.19,2.91l-0.1,-0.42c0,3.66 0.08,7.39 0.12,11.08c-4.85,0 -9.71,-0.06 -14.54,0c-4.4,0 -8.75,0.23 -13.15,0.26c-3.72,0 -7.7,0 -11.17,-0.13c-5.47,-0.27 -10.72,-0.38 -16.23,-0.11a11.74,11.74 0 0 1 -1.59,0c-3.37,-0.53 -4.38,0.21 -6.52,0.32a1.8,1.8 0 0 0 -1.4,0.66c-0.18,0.19 0.49,0.41 0.16,0.59c-0.83,0.44 -3.33,0.92 -2.73,1.3c0.76,0.48 -0.8,0.69 -2.12,1l4,0.34c-4.14,0.33 -1.63,1.28 -6.69,1.49l1.7,0.15l-4.09,2.18l8.49,0c0,0.29 -0.68,0.65 0.13,0.88c2.16,0.61 6.34,0.33 9.37,0.27a24.72,24.72 0 0 1 5.46,0.26a19.79,19.79 0 0 0 4.61,0.34c1,0 2,0 3,0.07l0,0.15l-8.95,0.24c1.94,0.11 3.78,0.11 5.61,0.11c4.46,0 9,0 13.36,0.05c3.49,0.07 8,0.78 5.92,1.35c-1.55,0.43 -3.79,0.8 -5.84,1.19c-0.26,0 -1.26,0 -1.91,0l0.25,-0.34l-4.26,0.35l2.57,0.24c0.08,0.26 0.25,0.46 0.18,0.65c-0.2,0.53 0.82,1.11 -2.27,1.54a24.21,24.21 0 0 0 -3.58,0.54c-0.44,0.29 -1.09,0.28 -2.6,0.3a23.34,23.34 0 0 0 -3.91,0.31c-0.65,0.21 -0.06,0.51 0,0.85l-1.16,0.13l5.26,0.06l0.41,-0.39c2.39,0.1 4.52,0.25 6.69,0.27s4.41,-0.1 7,-0.17l-1,0.25l3.21,0.12a3.71,3.71 0 0 0 1.2,0.8a10.87,10.87 0 0 0 2.41,0.26c4.69,-0.22 9,0.17 13.52,0.16c1.1,0 2.34,0 3.29,0c4.91,-0.34 10.36,-0.31 15.49,-0.52c6.42,-0.26 12.87,-0.47 18.86,-0.92c2.27,-0.17 5.53,-0.24 4.93,-0.89c-0.32,-0.35 0.51,-0.37 3.43,-0.27c0.71,0 1.5,0 2.24,0c5.67,0 11.34,0 17,0c0.84,0 1.67,0.12 2.5,0.19l-0.36,0.1l16.81,-0.22c-0.59,-0.53 0.93,-0.82 3.26,-0.86a14.09,14.09 0 0 1 1.61,-1.69c0.92,-0.73 -1,-1 -5.8,-0.85c-3,0.1 -6.16,0.13 -9.25,0.19c-2,0 -4.23,0 -5.89,0.13c-4.94,0.4 -9.94,0.71 -15.56,0.78c-1.22,0 -2.43,0.09 -3.59,0.16c-1.73,0.1 -3.4,0.22 -5.57,0.37c0.5,-0.78 -0.61,-1 -4.51,-1c-2,0 -3.94,0.08 -5.9,0.07q-9.23,-0.05 -18.45,-0.15c0,-0.07 0,-0.1 0,-0.17l0.11,0l7.77,-0.08c0.18,0.4 0.34,0.37 0.49,0l15.78,-0.17c0.62,0 1.26,0.15 1.93,0.16c1.93,0 3.87,0 5.81,0c-0.17,-0.2 -0.05,-0.42 -0.56,-0.6c-1.33,-0.47 -2.94,-0.91 -4.53,-1.4c3,-0.43 3,-0.43 5,0.06a12,12 0 0 0 1.77,0.1a49.4,49.4 0 0 0 10,-0.78a6.24,6.24 0 0 1 1.67,-0.31c2.84,0 5.71,0 8.56,0c5.14,0 9,-0.68 7.68,-1.45c-0.93,-0.53 2.15,-1.64 4.78,-1.7c5,-0.12 6.12,-0.65 6.43,-1.14c0.12,-0.19 -0.5,-0.42 0,-0.56c2.4,-0.58 1.07,-1 -1.5,-1.35l2.16,-0.47c-1.22,-0.13 -2.34,-0.3 -3.69,-0.37s-3.46,0.07 -4.29,0a106.15,106.15 0 0 0 -12.62,-0.45c-2.75,0 -5.56,0.13 -8.64,0.21c0.33,-0.75 3.58,-1.64 -4.46,-1.78l0.78,-0.84c-2.85,-0.15 -5.87,-0.18 -7.73,-0.43a40,40 0 0 0 -7.81,-0.2a7.86,7.86 0 0 0 -2.5,0.72l0.24,0.2c-2.4,-0.12 -5.43,-0.13 -7.08,-0.37s-3.47,-0.36 -5.51,-0.45c0.18,-3.53 0.22,-7.28 0.24,-11c0,-3.21 -0.13,-6.49 -0.21,-10.08c0.75,0.39 1.64,4.18 1.78,-5.21l0.84,0.91c0.15,-3.32 0.18,-6.85 0.43,-9a54.39,54.39 0 0 0 0.2,-9.11a10.31,10.31 0 0 0 -0.72,-2.91l-0.2,0.28c0.12,-2.8 0.13,-6.34 0.37,-8.26a101.5,101.5 0 0 0 0.3,-17.79c-0.07,-0.93 -0.07,-2.26 -0.07,-3.41c0,-5.95 0.06,-11.91 0,-17.83c0,-5.14 -0.23,-10.21 -0.26,-15.34c0,-4.34 0,-9 0.13,-13c0.27,-6.39 0.38,-12.51 0.11,-18.94a15.83,15.83 0 0 1 0,-1.85a17.58,17.58 0 0 0 -0.16,-6a39,39 0 0 0 14.08,-11a38.38,38.38 0 0 1 -14.2,9.8c0,-0.14 0,-0.25 0,-0.39a2.23,2.23 0 0 0 -0.66,-1.64c-0.19,-0.21 -0.41,0.58 -0.59,0.19c-0.44,-1 -0.92,-3.88 -1.3,-3.18c-0.48,0.89 -0.69,-0.93 -1,-2.47l-0.34,4.69c-0.33,-4.83 -1.28,-1.9 -1.48,-7.8l-0.15,2l-2.18,-4.77l0,9.91c-0.29,0 -0.65,-0.79 -0.88,0.15a26.37,26.37 0 0 0 -0.37,5.73a36.74,36.74 0 0 1 -17.5,-1.62c0,-1 0.05,-1.94 0.07,-2.9a24.26,24.26 0 0 0 -0.18,-3.06c-0.62,-4.61 -1.69,-2.57 -2.16,3.19c-0.05,0.62 0,1.29 -0.07,1.92a37.57,37.57 0 0 1 -7.71,-4.24a43.34,43.34 0 0 1 -5.93,-5.29l-4.43,-4.89c0.22,-0.19 3.67,3.1 0,-1.27c-9.66,-11.64 -29.45,-33.16 -43.7,-48.88c-11.81,-13 -20.38,-22.59 -25.42,-28.59c-5.48,-6.52 -12.23,-14.08 -21.38,-24.23l-13.77,-15.64l0.08,-0.14l42.11,46.37l-26.19,-29.25l-34.79,-38.64l7,0c5,5.36 10,10.79 11.21,11.86c2.26,2.08 5.29,5.46 12.43,13.33c6.65,7.34 16,17.57 18.55,20.12c3.19,3.22 0.67,0 0.59,-0.61l5.56,6l-24.6,-27.39l-2.19,-1.86l-19.13,-21.45l9.54,0c23.86,0.51 52.93,0.42 80.29,0.45l55,-0.21c-2.1,0.75 -22.79,1.64 28.4,1.78l-5,0.84l49.18,0.43c16.63,0.35 33.65,0.36 49.69,0.2c8.06,-0.08 10.78,-0.47 15.9,-0.72l-1.52,-0.2l10.29,0.06l-10.37,11.5l-11.8,12.87l1.6,-1.92l-78.65,87.58c3.17,-2.72 -3.77,5.41 -14.67,17.56c-2.23,3.39 -3.53,5.64 -6.3,9.51c-3.79,5.3 5.23,-4.3 27.81,-29.58l43.24,-48.15l27.52,-30.73l25.22,-28.56l2.95,0l0.36,0c0.45,0 0.78,0.11 0.78,0.23a0.34,0.34 0 0 1 0,0.08l-0.2,0.22l-0.65,0.31l-0.18,0.07l-0.05,0l0,0l-0.51,0.46l-7.18,6.57c0.7,-0.12 1.38,-0.13 2.07,-0.19l-21.16,23.54c-24.11,26.69 -41.77,47.36 -34.9,40.89c4.73,-4.45 -8.87,12.29 -21.16,26c-23.56,26.32 -28.21,32.27 -29.3,34.21c-0.41,0.74 2.68,-2.34 0.2,0.61c-10.8,12.85 -4.27,6.26 8,-6.87l-9.79,11.56l17.57,-18.93l20.15,-22.3c18,-19.17 39.3,-42.95 59.47,-65.28l30.91,-34.53a93.2,93.2 0 0 0 34,3.22a88,88 0 0 0 53.82,-25.42c1.28,-1.25 3.29,-3.56 4.07,-4.32c8.56,-9.29 9.74,-13.19 13.31,-20.26a16.26,16.26 0 0 0 1.65,-5c0.11,-0.68 -1.16,1.48 -0.8,0.3c0.82,-3 3.33,-11.74 2.22,-9.79c-1.18,2.53 0.1,-3 0.94,-7.64a93.37,93.37 0 0 1 -4.48,13.63c2.5,-7 2.28,-8.53 2.5,-10.38s0.62,-4.07 1.63,-12.88l-1,5.86a92.28,92.28 0 0 0 -0.9,-14.21a81.07,81.07 0 0 1 -5.08,28.35c-0.27,-0.11 0.18,-2.38 -1,0.12c-0.76,1.66 -1.6,3.74 -2.81,5.93a72.43,72.43 0 0 1 -3.84,7.11a62,62 0 0 1 -4.75,7.2a53.43,53.43 0 0 1 -5.16,6.35a62.72,62.72 0 0 1 -13.92,11.86a150.27,150.27 0 0 1 -13.62,7.22a96.78,96.78 0 0 1 -9.32,3.37l-0.06,-0.14a80.67,80.67 0 0 0 22.26,-11c-1.29,0.88 -2.6,1.71 -3.94,2.46a66.34,66.34 0 0 1 -8.1,4.3a79.82,79.82 0 0 1 -43.18,6.64a47.48,47.48 0 0 1 -5.34,-0.91l2,-2.06c1.15,0.14 2.31,0.34 3.45,0.41c0.83,0.18 4,0.39 6.1,0.48l-0.81,0.3a76.36,76.36 0 0 0 13.64,-0.73c-4.89,0.37 -7.62,0.23 -8.23,0.3c-0.27,-0.25 -0.8,-0.42 -0.59,-0.62c0.59,-0.56 -2.54,-1 7,-1.9c3.88,-0.64 9.94,-1.88 10.8,-2.5c1.22,-0.67 3.22,-0.91 7.55,-2.65a39.37,39.37 0 0 0 6.42,-2.84a26.89,26.89 0 0 0 4.3,-2.45c1.58,-1.21 -0.1,-0.54 -0.44,-0.73l2.94,-1.94l-4,2.44l-3.68,1.76a46,46 0 0 1 -6.51,2.68l-1,0.79a73,73 0 0 1 -19.85,3.54a69.63,69.63 0 0 1 -13.17,-0.52c3.88,-4.19 9.24,-10 16.67,-18.25l-3,4.61l5.07,-5.55l2.54,-2.78l3.12,-3.69c4.29,-4.91 7.39,-11.27 9.56,-17.34a54.52,54.52 0 0 0 -0.46,-33.1a52.82,52.82 0 0 0 -23.11,-29l-4.14,-2.35l-4.38,-1.78a46.08,46.08 0 0 0 -9,-2.56c-3,-0.82 -6,-0.71 -9.06,-1c-1.65,-0.12 -2.76,-0.1 -3.83,-0.09l-3.32,0c-8.88,0.08 -11.86,0.47 -17.5,0.72l1.67,0.2l-6.5,0c0.11,-0.18 0.19,-0.34 0.31,-0.53a38.65,38.65 0 0 1 3.42,-5c0.58,-0.68 1.88,-2.31 3.33,-3.78l3.7,-3.34c9,-7.08 19.49,-12.17 28.57,-14.26c-2.16,0.22 -4.31,0.23 -6.06,0.57l-5.41,0.77a83,83 0 0 0 -18.05,11a58.84,58.84 0 0 0 -12.84,14.51l-2.89,0a74.26,74.26 0 0 1 22,-22.77c5.59,-4.08 15,-7.45 13,-7.39c-1,0.16 1.22,-1.3 10,-3.26c2.14,-0.47 4.53,-0.74 6.79,-1.12c17.26,-2 35.31,1.88 49.8,11.62c2.18,1.39 4,3.12 6.07,4.66l-0.94,-0.58a74.86,74.86 0 0 1 26.85,42.77c0.1,-1.9 1.56,2.63 2.22,9.84a47,47 0 0 1 1.94,5c0.44,1.46 0.65,0.71 0.64,-2.36a59.42,59.42 0 0 0 -2.21,-16a78.07,78.07 0 0 0 -12.67,-26.64a74,74 0 0 0 -12.87,-13.67a79.23,79.23 0 0 0 -45.43,-17.17a70.93,70.93 0 0 0 -11.32,0.28c-2.71,0.28 -5.33,0.87 -8.14,1.32c-2.74,0.76 -5.7,1.44 -8.9,2.6c0.62,-0.64 0.1,-0.71 -2,-0.08a55,55 0 0 0 -11.44,4.88a78.45,78.45 0 0 0 -15.07,11.1a75.07,75.07 0 0 0 -13.62,17l-0.44,0a77.32,77.32 0 0 1 28.42,-28.24c1.67,-1.07 3.68,-1.68 5.58,-2.64a79.26,79.26 0 0 1 17.6,-5.75c-0.57,-0.09 -0.26,-0.45 -1.88,-0.21c-2.13,0.32 -4.5,0.64 -7,1.11l-7.46,2c9,-3.93 9.08,-3.63 15.69,-4.77c1,-0.08 3.47,-0.42 5.42,-0.69a103.19,103.19 0 0 1 18.3,-0.48c3.13,0.43 6.13,0.69 8.59,1.11l5.6,1.1a27.3,27.3 0 0 1 5.32,1.45a79.5,79.5 0 0 1 24.39,14.18c13,11.14 19.16,22.93 17.68,18.49c-0.59,-1.47 0.7,-0.15 2.75,2.55a53,53 0 0 1 5.93,11.34a99.05,99.05 0 0 1 4.66,16.57a31.53,31.53 0 0 0 1.34,4.88c0.21,0.4 0.33,-1.8 0.56,0.11c0.84,8.39 1.59,3.74 0.69,-5.41a49.37,49.37 0 0 1 1.22,7.64zm-322.73,401.28l-13.12,-0.32l0.27,-0.21c0.72,0 1.44,0.1 2.15,0.1c1.2,0 2.38,-0.06 3.58,-0.08c2,0 4,-0.08 6,0a7.74,7.74 0 0 1 1.77,0.39l-0.65,0.12zm56.15,-139.67c0,2.34 0.08,4.72 0,7a10.24,10.24 0 0 1 -0.39,2.06l-0.17,-0.76q0.16,-7.66 0.32,-15.31l0.21,0.32c0,0.84 -0.1,1.68 -0.1,2.51c0.06,1.41 0.12,2.78 0.13,4.18zm-10.09,46.08l0.16,3.32l0,-0.1l0,-4.45a53.56,53.56 0 0 1 0.12,10.81c-0.15,-1.75 -0.33,-3.4 -0.44,-5.29c-0.03,-0.78 0.08,-2.06 0.16,-4.29zm-10,103.32c-0.66,0 -1.76,-0.07 -3.67,-0.15l2.84,-0.16l-0.09,0l-3.81,0a39.39,39.39 0 0 1 9.26,-0.12c-1.51,0.15 -2.93,0.32 -4.55,0.43l0.02,0zm10.69,-13.88c0,-1.1 0,-2.19 -0.06,-3.28c0,-2.31 0,-4.93 -0.13,-6.87c-0.4,-5.76 -0.71,-11.6 -0.78,-18.15c0,-1.42 -0.09,-2.83 -0.16,-4.19c-0.1,-2 -0.22,-4 -0.37,-6.5c0.78,0.59 1,-0.71 1,-5.26c0,-2.3 -0.08,-4.6 -0.07,-6.89q0.05,-11.2 0.15,-22.39s0.07,-0.07 0.11,-0.11c0,0.37 0.06,0.75 0.06,1.14q0.14,14 0.26,28.06c0,0.72 -0.15,1.48 -0.16,2.25c0,2.25 0,4.52 0,6.78c0.2,-0.2 0.42,-0.06 0.6,-0.66c0.47,-1.56 0.91,-3.43 1.4,-5.28c0.43,3.49 0.43,3.46 -0.07,5.85a16.26,16.26 0 0 0 -0.14,1.95a67,67 0 0 0 0.78,11.64a8.36,8.36 0 0 1 0.31,1.94c0,3.31 0,6.67 0,10c0,6 0.68,10.52 1.45,9c0.23,-0.46 0.56,0 0.87,0.79c-1.64,0 -3.26,0.09 -4.75,0.22l-0.3,-0.04zm3.8,-145.85c0,0.2 0,0.39 0,0.59a41.2,41.2 0 0 1 -7.86,0.21a42,42 0 0 0 7.85,-0.8l0.01,0zm-37.43,-12.57c0.71,0.78 1.67,1.72 2.61,2.61a25.51,25.51 0 0 0 2.48,2.18a36.91,36.91 0 0 0 7.16,4.43c1.43,0.62 3,1.34 5.22,2.08c0,0.47 0,0.94 -0.05,1.42a41.72,41.72 0 0 1 -12.4,-7.31c-4.92,-4.42 -7.13,-7.59 -11.08,-11.89l6.06,6.48zm247.83,-150.75a87,87 0 0 0 39.31,-24.58l-0.5,0.87a62.22,62.22 0 0 1 -5.55,5.33a92.92,92.92 0 0 1 -10,8c-6.06,3.84 -12.51,7.49 -19.27,9.62a28.32,28.32 0 0 1 -6.16,1.52l2.17,-0.76zm-275.03,-109.4l-31.77,0.44l-25.71,-0.15l19.9,-0.16l-0.62,0l-26.68,0c26.12,-0.41 52.67,-0.45 64.88,-0.13zm-139.59,37.18a35.85,35.85 0 0 1 34.09,-31.76c15.26,-0.18 31,0.09 46.75,0l23,0l108.46,-0.52l132.09,-0.9c7.85,0.05 17.91,-0.52 24.34,0.31a42.42,42.42 0 0 1 7.57,1.9c1.61,0.52 2.24,0.63 1.38,0.12s0,-0.58 3.11,1.19c3.13,1.57 8.71,5.13 14.08,13.36a42.3,42.3 0 0 1 5.14,14a36.6,36.6 0 0 1 -6.51,26.93c-6,7.38 -13.11,14.75 -19.62,22.13l-9.78,10.84c-3.91,0 -7.23,0 -9,0l-20.88,-0.24l-19,0l-34.72,0.12l13.49,1.07l11.83,1.14l47.37,0l9.07,0l-2.54,2.82l-28.64,0.22c-14.44,0.17 -35.2,0.24 -31.4,0.89c2.05,0.35 -3.24,0.37 -21.84,0.27l-122.5,0l-15.89,-0.19l2.27,-0.1l-100.79,0.16l-0.43,-0.48l-32.97,-36.41c2.19,2.48 3.52,3.7 4.84,5.11c-3,-3.34 -5.5,-6.24 -7.54,-9l-2.5,-4.27l-1.66,-4.19a15.73,15.73 0 0 1 -0.45,-3.22a30.44,30.44 0 0 1 -0.38,-4.38a35.39,35.39 0 0 1 0.16,-6.92zm367.64,62.41l-4.58,0l2.47,-2.79l4.4,0c-0.67,0.89 -1.46,1.82 -2.29,2.78l0,0.01zm-332.28,1.66l-0.19,-0.22c0.37,0.08 0.43,0.15 0.19,0.22zm-0.26,-0.3l-2.39,-2.72c-0.19,-0.61 -0.84,-1.62 -0.39,-1.39c1.06,0.53 -1.63,-3.16 5.44,4.11l-2.66,0zm-32.29,-32a43.47,43.47 0 0 1 -8.8,-15.6c-0.64,-2.41 -1,-4.56 -1.31,-6.24c-0.14,-1.71 -0.12,-3 -0.12,-3.69c0,-1.42 0.25,-0.61 0.71,3.24a43.49,43.49 0 0 0 8.53,18.25c4.85,5.74 10,10.75 15,16.1l9,9.93l-1.41,-1.06l10.52,11.45c-0.59,0.08 -1.65,0.15 -3.05,0.21l-16.57,-18.44c-4.08,-4.59 -8.38,-9.32 -12.5,-14.18l0,0.03zm55.2,70.89l61.26,68.44l-1.44,-1.28l-10,-11.23l-16.8,-18.57l-28.21,-31.2c-3.18,-3.54 -5.36,-6.32 -8,-9.45l3.19,3.29zm-23.54,-35.46l3.29,0l5.38,5.83l-3.4,0l-5.27,-5.83zm8.75,5.81l-5.11,-5.83l2.94,0l3.08,3.26l2.39,2.55l-3.3,0.02zm280.85,-6l-12.29,-0.19l-37,0a9.52,9.52 0 0 0 3.58,0.6l28.81,1.4c-19.06,0.43 -18.85,0.43 -31.91,-0.06l-10.63,-0.14c-19.62,-0.1 -54.4,0.34 -63.5,0.78c-2.51,0.12 -6.68,0.31 -10.6,0.31l-54.49,0c-32.69,0 -57.4,0.68 -48.84,1.45c5.89,0.53 -13.69,1.64 -30.44,1.7l-7.66,0l-5.17,-5.69l55.57,-0.18l37.49,-0.13c31.41,-0.4 63.26,-0.71 99,-0.78l22.84,-0.16l35.44,-0.37c-3.2,0.78 3.89,1 28.69,1l33.17,-0.06l-0.47,0.52l-31.59,0zm35,-0.06l0.47,-0.53l4.59,0l-0.46,0.52l-4.6,0.01zm14.23,0.9l-0.44,-0.11l1.69,-1.89l0.07,0c-0.25,0.47 -0.75,1.2 -1.33,1.97l0.01,0.03zm-21.16,-105.39c4.37,0.11 8.76,-0.11 13.62,0.42a40,40 0 0 1 33.33,22.34a10.36,10.36 0 0 0 -1.44,-3.88a42.84,42.84 0 0 0 -10.44,-12.07c-4.57,-3.37 -10,-6.42 -15.88,-7.63l3.92,0.82c1.19,0.36 2.28,0.82 3.32,1.19l2.91,1.1l2.4,1.32a37,37 0 0 1 6.92,4.75a38.07,38.07 0 0 1 9.74,13a29.5,29.5 0 0 1 2.11,5a34.67,34.67 0 0 1 1.86,6.91a42.91,42.91 0 0 1 -1.08,19.9c-2,7.1 -7,13.54 -11.53,18.58c-8.94,10.14 -16.86,19.26 -20,23.13l-0.19,0.23l-4.38,0l27.6,-31.19a37.12,37.12 0 0 0 7.55,-23.75a38.45,38.45 0 0 0 -4.8,-17.64a39.5,39.5 0 0 0 -14,-14.91c1.74,0.55 1,-0.18 -3.32,-2.82a42.21,42.21 0 0 0 -10,-3.4c-4.55,-1 -10.29,-0.94 -17.06,-0.89l-41.37,0.07l-134.4,-0.15a3.05,3.05 0 0 1 -0.6,-0.07l6.84,-0.06l168.37,-0.3zm85.79,68.36a12.86,12.86 0 0 0 1.06,-2a12.48,12.48 0 0 1 -1.33,1.76a63.2,63.2 0 0 1 -30.23,17.63a8.33,8.33 0 0 0 1.11,-0.57c1.72,-0.67 3.49,-1.24 5.19,-1.95l5,-2.37c12.2,-6.5 21.91,-17.77 27.59,-29.8c2.57,-5.72 3.77,-9.84 4.57,-11.15s0.81,0.12 -0.18,5.24c-0.33,1.64 -1.43,4.51 -2.13,6.57a67.66,67.66 0 0 1 -10.65,16.64zm-428.59,-17.11c-1.59,-3.15 -1.89,-6.69 -2.18,-10.16a28.59,28.59 0 0 1 7.92,-19.35a27.33,27.33 0 0 1 19.1,-8.51l1.38,-0.12l28.37,0c36.62,0 71.7,0.95 57.35,1.7l-8.65,0.18l-66.43,0.68l-9.67,-0.31a34.93,34.93 0 0 0 -8.44,0.75a26.08,26.08 0 0 0 -12.28,7.68c0.13,0.1 -0.91,1.43 0.64,0c2.41,-2.5 3.77,-2.74 2.66,-1.94a25.45,25.45 0 0 0 -7,10.12a23.76,23.76 0 0 0 -1.23,13.42a24.91,24.91 0 0 0 6.58,12.19c9.85,10.95 19.47,21.7 28.24,31.78c3.51,4 7.51,8.77 6.7,8.07c-4.83,-4.23 -10.64,-9.54 -16.87,-15.34c-2.68,-2.5 -8.79,-9.15 -20,-21.68l-3.7,-4.52c-0.75,-1.59 -2.05,-2.94 -2.49,-4.64zm153,-42c-3.05,-0.11 -4.72,-0.28 -3.3,-0.4l11.09,-0.66l91.73,-0.53c19.35,-0.14 35.16,-0.42 59,-0.27l26,0l13.07,-0.03a54,54 0 0 1 5.7,0.25a22.13,22.13 0 0 1 5,0.82a32.39,32.39 0 0 1 9.52,5.22a48.29,48.29 0 0 1 4.2,3.88a33.63,33.63 0 0 1 3.67,5.11c-5.24,-7.77 -15,-13 -26.23,-13c-13.63,0 -27.93,0 -42.19,-0.26c-4.29,-0.08 -20.47,0 -25,0.11c-11,0.29 -20.51,0.62 -26.61,1c-5.84,0.33 -14.31,0.5 -29.12,0.39c-17.45,-0.13 -43,0.1 -47.54,-0.63c-2.1,-0.33 -19.57,-0.64 -29.02,-0.98l0.03,-0.02zm-22.78,187.34l4.3,4.08l-4,-4.33l-63.19,-72.98l2.42,2.41l20.55,22.81c25.39,28.33 52,57.46 76.24,85.13c5.61,6.3 11,12.93 12.48,14a22.57,22.57 0 0 0 5.48,3.35c1,0.47 1,0.68 -0.3,0.55a16.23,16.23 0 0 1 -7.32,-3.42c-0.54,-0.43 -1.08,-1 -1.81,-1.65l-3.23,-3.5l-6.53,-7.18l-35.09,-39.27zm45.8,123.27c0.09,-0.73 0,-2.47 0,-3.75c-0.16,0 -0.36,-0.43 -0.48,0.1c-0.41,1.78 -0.61,1.3 -0.62,-2.42c0,-4.84 -0.34,-10 0.17,-14.45c0.1,-0.89 0.3,-1.92 0.43,-1.74a34.4,34.4 0 0 1 2.27,3.76c0.32,0.61 0.4,2.11 0.35,4.91c-0.12,6.67 -0.21,13.45 -0.2,20.17c0,6.1 -0.95,11.95 -1.7,9.55a8.85,8.85 0 0 1 -0.18,-1.44c-0.23,-3.61 -0.45,-7.25 -0.68,-11.07c0.21,-0.98 0.45,-2.04 0.64,-3.62zm7.57,49.4c-0.11,2.73 0,6 0,8.56c-0.39,0.73 -0.76,1.39 -1.14,2.17s-0.68,1.57 -1.07,2.47c0,-3.87 -0.39,-8.64 0.13,-13.39a29.65,29.65 0 0 0 -0.11,-4.16a28.49,28.49 0 0 0 -1,-4.43a13.51,13.51 0 0 1 -0.39,-4.85c0.13,-2.91 -0.1,-7.17 0.63,-7.92c0.36,-0.36 0.67,-3.28 1,-4.85c0.11,-0.51 0.28,-0.79 0.4,-0.55a15.38,15.38 0 0 1 0.66,1.85c0.18,5.44 0.32,10.46 0.53,15.28c0.28,3.21 0.56,5.85 0.36,9.82zm-1.34,77.55a6.5,6.5 0 0 1 -1.24,0.18l-9.49,0.68c-0.86,-0.18 -1.77,-0.45 -3.13,-0.63c-0.62,-0.09 -2.12,0 -3.21,0c0,0.16 -0.37,0.36 0.09,0.48c1.53,0.41 1.11,0.61 -2.08,0.62c-4.15,0 -8.57,0.34 -12.39,-0.17c-0.76,-0.1 -1.65,-0.3 -1.5,-0.43a28.87,28.87 0 0 1 3.29,-2.28c0.52,-0.32 1.81,-0.4 4.21,-0.35c5.72,0.12 11.53,0.21 17.29,0.2c5.24,-0.01 10.25,0.95 8.2,1.7l-0.04,0zm37.69,-6.3c0.62,0.34 1.35,0.68 2.12,1.07c-3.32,0 -7.41,0.39 -11.48,-0.13a21.74,21.74 0 0 0 -3.56,0.11a21.49,21.49 0 0 0 -3.8,1a10,10 0 0 1 -4.16,0.39c-2.49,-0.13 -6.15,0.1 -6.79,-0.63c-0.31,-0.36 -2.81,-0.67 -4.16,-1c-0.44,-0.11 -0.67,-0.28 -0.47,-0.4a12.19,12.19 0 0 1 1.58,-0.66c4.66,-0.18 9,-0.32 13.1,-0.53a74.82,74.82 0 0 1 8.42,-0.27c2.34,0.11 5.13,0 7.33,0c0.68,0.3 1.25,0.68 1.91,1.05l-0.04,0zm-89.45,5.74l13.76,1.92l-0.49,0.18c-1.46,0 -2.95,0 -4.38,0c-5.43,-0.11 -11.05,0.13 -16.3,-0.37c-4.94,-0.47 -6.68,-1.53 -2.73,-2.16a17.79,17.79 0 0 1 2.63,-0.18c2.45,0 4.85,0.15 7.52,0.24l-0.84,0.46l0.83,-0.09z" id="svg_1"/>
 </g>
</svg>