<svg id="Layer_1" data-name="Layer 1" xmlns="http://www.w3.org/2000/svg" viewBox="0 0 512 512"><defs><style>.cls-1{fill:#707070;}</style></defs><title>martini-handdrawn</title><path class="cls-1" d="M503.47,85.44a79.36,79.36,0,0,0-1.32-13.19c-.57-2.35-1.32-5.39-2.14-8.15l-2.39-6.65c-4.52-12.77-14.5-26.72-26.87-36.2a84,84,0,0,0-27.6-14.41c.67-.16,3.88.57,3.47.07-.43-.31-4.31-3-19-5.23l3-.4A93.4,93.4,0,0,0,401.89,1a77.76,77.76,0,0,0-27.71,9c-4.13,2.35-5.23,3.63-7.66,5.37l.86-.3c-7.6,4.72-15.82,12.49-19.89,17.08A88.6,88.6,0,0,0,334.74,51l-16.13-.12c-27.51-.57-72.19-.75-106.76-.3l-20.46.07-107.05,0-11.54,0H62.72l-1.92.12a53.72,53.72,0,0,0-29.28,9.6c-17.31,12-26.42,34.2-21.79,55.17a51.29,51.29,0,0,0,12.06,23.67c1.52,1.86,2.5,2.87,3.63,4.15l3.34,3.71,6.67,7.41,25.62,28.64c25.45,28.63,49.95,56,76,84.43l7.43,8.28c15.42,17.89,20.67,22.62,30.78,33.67a58.6,58.6,0,0,0,7.06,6.84c1,.82-2-2.85-.31-1.23l9.39,9.41,2.29,2.27,2.32,2.1c1.19,1,1.56,1.23.6.17-2.37-2.79-1.06-1.37,2.36,1.29A43.83,43.83,0,0,0,211.26,337c-.08,4.21-.07,8.47-.15,12.68,0,1.67,0,3.4,0,5.11l.18.57,1.92-16.05-.1-1,.46,1c0-.54,0-1,0-1.55.25.07.49.17.73.23-.25-.08-.48-.18-.73-.26l0-1.54c.57.16,1.09.32,1.75.48a42.38,42.38,0,0,0,15.86.79c0,1,.05,1.92.07,2.78a33.51,33.51,0,0,1-.26,6.37,26.81,26.81,0,0,0-.34,5.38c0,1.15,0,2.31-.07,3.47h-.15L230.3,345c-.11,2.26-.11,4.41-.11,6.54,0,5.2,0,10.45-.05,15.59-.07,4.07-.78,9.31-1.35,6.9-.43-1.8-.8-4.42-1.19-6.82,0-.31,0-1.46,0-2.23l.34.29-.35-5-.25,3c-.26.1-.46.29-.65.21-.53-.23-1.11,1-1.54-2.65a32.65,32.65,0,0,0-.54-4.18c-.29-.51-.28-1.27-.3-3a31.65,31.65,0,0,0-.31-4.56c-.21-.75-.51-.07-.85,0l-.13-1.36c0,2.64,0,4.4-.06,6.13l.39.48c-.1,2.79-.25,5.27-.27,7.81s.1,5.14.17,8.2l-.25-1.19c0,1.47-.09,2.71-.12,3.75a4.47,4.47,0,0,0-.8,1.4,14.77,14.77,0,0,0-.26,2.81c.22,5.47-.17,10.5-.16,15.78,0,1.29,0,2.73,0,3.83.34,5.73.31,12.09.52,18.07.26,7.49.47,15,.92,22,.17,2.65.24,6.45.89,5.76.35-.38.37.59.27,4,0,.83,0,1.74,0,2.62q0,9.92,0,19.84c0,1-.12,1.94-.19,2.91l-.1-.42c0,3.66.08,7.39.12,11.08-4.85,0-9.71-.06-14.54,0-4.4,0-8.75.23-13.15.26-3.72,0-7.7,0-11.17-.13-5.47-.27-10.72-.38-16.23-.11a11.74,11.74,0,0,1-1.59,0c-3.37-.53-4.38.21-6.52.32a1.8,1.8,0,0,0-1.4.66c-.18.19.49.41.16.59-.83.44-3.33.92-2.73,1.3.76.48-.8.69-2.12,1l4,.34c-4.14.33-1.63,1.28-6.69,1.49l1.7.15-4.09,2.18h8.49c0,.29-.68.65.13.88,2.16.61,6.34.33,9.37.27a24.72,24.72,0,0,1,5.46.26,19.79,19.79,0,0,0,4.61.34c1,0,2,0,3,.07v.15l-8.95.24c1.94.11,3.78.11,5.61.11,4.46,0,9,0,13.36.05,3.49.07,8,.78,5.92,1.35-1.55.43-3.79.8-5.84,1.19-.26,0-1.26,0-1.91,0l.25-.34-4.26.35,2.57.24c.08.26.25.46.18.65-.2.53.82,1.11-2.27,1.54a24.21,24.21,0,0,0-3.58.54c-.44.29-1.09.28-2.6.3a23.34,23.34,0,0,0-3.91.31c-.65.21-.06.51,0,.85l-1.16.13,5.26.06.41-.39c2.39.1,4.52.25,6.69.27s4.41-.1,7-.17l-1,.25,3.21.12a3.71,3.71,0,0,0,1.2.8,10.87,10.87,0,0,0,2.41.26c4.69-.22,9,.17,13.52.16,1.1,0,2.34,0,3.29,0,4.91-.34,10.36-.31,15.49-.52,6.42-.26,12.87-.47,18.86-.92,2.27-.17,5.53-.24,4.93-.89-.32-.35.51-.37,3.43-.27.71,0,1.5,0,2.24,0,5.67,0,11.34,0,17,0,.84,0,1.67.12,2.5.19l-.36.1,16.81-.22c-.59-.53.93-.82,3.26-.86a14.09,14.09,0,0,1,1.61-1.69c.92-.73-1-1-5.8-.85-3,.1-6.16.13-9.25.19-2,0-4.23,0-5.89.13-4.94.4-9.94.71-15.56.78-1.22,0-2.43.09-3.59.16-1.73.1-3.4.22-5.57.37.5-.78-.61-1-4.51-1-2,0-3.94.08-5.9.07q-9.23-.05-18.45-.15c0-.07,0-.1,0-.17h.11l7.77-.08c.18.4.34.37.49,0l15.78-.17c.62,0,1.26.15,1.93.16,1.93,0,3.87,0,5.81,0-.17-.2-.05-.42-.56-.6-1.33-.47-2.94-.91-4.53-1.4,3-.43,3-.43,5,.06A12,12,0,0,0,261,494a49.4,49.4,0,0,0,10-.78,6.24,6.24,0,0,1,1.67-.31c2.84,0,5.71,0,8.56,0,5.14,0,9-.68,7.68-1.45-.93-.53,2.15-1.64,4.78-1.7,5-.12,6.12-.65,6.43-1.14.12-.19-.5-.42,0-.56,2.4-.58,1.07-1-1.5-1.35l2.16-.47c-1.22-.13-2.34-.3-3.69-.37s-3.46.07-4.29,0a106.15,106.15,0,0,0-12.62-.45c-2.75,0-5.56.13-8.64.21.33-.75,3.58-1.64-4.46-1.78l.78-.84c-2.85-.15-5.87-.18-7.73-.43a40,40,0,0,0-7.81-.2,7.86,7.86,0,0,0-2.5.72l.24.2c-2.4-.12-5.43-.13-7.08-.37s-3.47-.36-5.51-.45c.18-3.53.22-7.28.24-11,0-3.21-.13-6.49-.21-10.08.75.39,1.64,4.18,1.78-5.21l.84.91c.15-3.32.18-6.85.43-9a54.39,54.39,0,0,0,.2-9.11,10.31,10.31,0,0,0-.72-2.91l-.2.28c.12-2.8.13-6.34.37-8.26a101.5,101.5,0,0,0,.3-17.79c-.07-.93-.07-2.26-.07-3.41,0-5.95.06-11.91,0-17.83,0-5.14-.23-10.21-.26-15.34,0-4.34,0-9,.13-13,.27-6.39.38-12.51.11-18.94a15.83,15.83,0,0,1,0-1.85,17.58,17.58,0,0,0-.16-6,39,39,0,0,0,14.08-11,38.38,38.38,0,0,1-14.2,9.8c0-.14,0-.25,0-.39a2.23,2.23,0,0,0-.66-1.64c-.19-.21-.41.58-.59.19-.44-1-.92-3.88-1.3-3.18-.48.89-.69-.93-1-2.47l-.34,4.69c-.33-4.83-1.28-1.9-1.48-7.8l-.15,2-2.18-4.77v9.91c-.29,0-.65-.79-.88.15a26.37,26.37,0,0,0-.37,5.73,36.74,36.74,0,0,1-17.5-1.62c0-1,.05-1.94.07-2.9a24.26,24.26,0,0,0-.18-3.06c-.62-4.61-1.69-2.57-2.16,3.19-.05.62,0,1.29-.07,1.92a37.57,37.57,0,0,1-7.71-4.24,43.34,43.34,0,0,1-5.93-5.29l-4.43-4.89c.22-.19,3.67,3.1,0-1.27-9.66-11.64-29.45-33.16-43.7-48.88-11.81-13-20.38-22.59-25.42-28.59-5.48-6.52-12.23-14.08-21.38-24.23L89,199.66l.08-.14,42.11,46.37L105,216.64,70.21,178h7c5,5.36,10,10.79,11.21,11.86,2.26,2.08,5.29,5.46,12.43,13.33,6.65,7.34,16,17.57,18.55,20.12,3.19,3.22.67,0,.59-.61l5.56,6-24.6-27.39-2.19-1.86L79.63,178h9.54c23.86.51,52.93.42,80.29.45l55-.21c-2.1.75-22.79,1.64,28.4,1.78l-5,.84,49.18.43c16.63.35,33.65.36,49.69.2,8.06-.08,10.78-.47,15.9-.72l-1.52-.2,10.29.06-10.37,11.5L349.23,205l1.6-1.92-78.65,87.58c3.17-2.72-3.77,5.41-14.67,17.56-2.23,3.39-3.53,5.64-6.3,9.51-3.79,5.3,5.23-4.3,27.81-29.58L322.26,240l27.52-30.73L375,180.71l2.95,0,.36,0c.45,0,.78.11.78.23a.34.34,0,0,1,0,.08l-.2.22-.65.31-.18.07-.05,0h0l-.51.46-7.18,6.57c.7-.12,1.38-.13,2.07-.19L351.23,212c-24.11,26.69-41.77,47.36-34.9,40.89,4.73-4.45-8.87,12.29-21.16,26-23.56,26.32-28.21,32.27-29.3,34.21-.41.74,2.68-2.34.2.61-10.8,12.85-4.27,6.26,8-6.87l-9.79,11.56,17.57-18.93L302,277.17C320,258,341.3,234.22,361.47,211.89l30.91-34.53a93.2,93.2,0,0,0,34,3.22,88,88,0,0,0,53.82-25.42c1.28-1.25,3.29-3.56,4.07-4.32,8.56-9.29,9.74-13.19,13.31-20.26a16.26,16.26,0,0,0,1.65-5c.11-.68-1.16,1.48-.8.3.82-3,3.33-11.74,2.22-9.79-1.18,2.53.1-3,.94-7.64a93.37,93.37,0,0,1-4.48,13.63c2.5-7,2.28-8.53,2.5-10.38s.62-4.07,1.63-12.88l-1,5.86a92.28,92.28,0,0,0-.9-14.21,81.07,81.07,0,0,1-5.08,28.35c-.27-.11.18-2.38-1,.12-.76,1.66-1.6,3.74-2.81,5.93a72.43,72.43,0,0,1-3.84,7.11,62,62,0,0,1-4.75,7.2,53.43,53.43,0,0,1-5.16,6.35,62.72,62.72,0,0,1-13.92,11.86,150.27,150.27,0,0,1-13.62,7.22,96.78,96.78,0,0,1-9.32,3.37l-.06-.14a80.67,80.67,0,0,0,22.26-11c-1.29.88-2.6,1.71-3.94,2.46A66.34,66.34,0,0,1,450,163.6a79.82,79.82,0,0,1-43.18,6.64,47.48,47.48,0,0,1-5.34-.91l2-2.06c1.15.14,2.31.34,3.45.41.83.18,4,.39,6.1.48l-.81.3a76.36,76.36,0,0,0,13.64-.73c-4.89.37-7.62.23-8.23.3-.27-.25-.8-.42-.59-.62.59-.56-2.54-1,7-1.9,3.88-.64,9.94-1.88,10.8-2.5,1.22-.67,3.22-.91,7.55-2.65a39.37,39.37,0,0,0,6.42-2.84,26.89,26.89,0,0,0,4.3-2.45c1.58-1.21-.1-.54-.44-.73l2.94-1.94-4,2.44-3.68,1.76a46,46,0,0,1-6.51,2.68l-1,.79a73,73,0,0,1-19.85,3.54,69.63,69.63,0,0,1-13.17-.52c3.88-4.19,9.24-10,16.67-18.25l-3,4.61,5.07-5.55,2.54-2.78,3.12-3.69c4.29-4.91,7.39-11.27,9.56-17.34a54.52,54.52,0,0,0-.46-33.1,52.82,52.82,0,0,0-23.11-29l-4.14-2.35-4.38-1.78a46.08,46.08,0,0,0-9-2.56c-3-.82-6-.71-9.06-1-1.65-.12-2.76-.1-3.83-.09l-3.32,0c-8.88.08-11.86.47-17.5.72l1.67.2-6.5,0c.11-.18.19-.34.31-.53a38.65,38.65,0,0,1,3.42-5c.58-.68,1.88-2.31,3.33-3.78l3.7-3.34c9-7.08,19.49-12.17,28.57-14.26-2.16.22-4.31.23-6.06.57l-5.41.77a83,83,0,0,0-18.05,11,58.84,58.84,0,0,0-12.84,14.51l-2.89,0a74.26,74.26,0,0,1,22-22.77c5.59-4.08,15-7.45,13-7.39-1,.16,1.22-1.3,10-3.26,2.14-.47,4.53-.74,6.79-1.12,17.26-2,35.31,1.88,49.8,11.62,2.18,1.39,4,3.12,6.07,4.66l-.94-.58A74.86,74.86,0,0,1,489.38,75c.1-1.9,1.56,2.63,2.22,9.84a47,47,0,0,1,1.94,5c.44,1.46.65.71.64-2.36a59.42,59.42,0,0,0-2.21-16A78.07,78.07,0,0,0,479.3,44.84a74,74,0,0,0-12.87-13.67A79.23,79.23,0,0,0,421,14a70.93,70.93,0,0,0-11.32.28c-2.71.28-5.33.87-8.14,1.32-2.74.76-5.7,1.44-8.9,2.6.62-.64.1-.71-2-.08A55,55,0,0,0,379.2,23,78.45,78.45,0,0,0,364.13,34.1a75.07,75.07,0,0,0-13.62,17h-.44a77.32,77.32,0,0,1,28.42-28.24c1.67-1.07,3.68-1.68,5.58-2.64a79.26,79.26,0,0,1,17.6-5.75c-.57-.09-.26-.45-1.88-.21-2.13.32-4.5.64-7,1.11l-7.46,2c9-3.93,9.08-3.63,15.69-4.77,1-.08,3.47-.42,5.42-.69a103.19,103.19,0,0,1,18.3-.48c3.13.43,6.13.69,8.59,1.11l5.6,1.1a27.3,27.3,0,0,1,5.32,1.45,79.5,79.5,0,0,1,24.39,14.18c13,11.14,19.16,22.93,17.68,18.49-.59-1.47.7-.15,2.75,2.55A53,53,0,0,1,495,61.65a99.05,99.05,0,0,1,4.66,16.57A31.53,31.53,0,0,0,501,83.1c.21.4.33-1.8.56.11.84,8.39,1.59,3.74.69-5.41A49.37,49.37,0,0,1,503.47,85.44ZM180.74,486.72l-13.12-.32.27-.21c.72,0,1.44.1,2.15.1,1.2,0,2.38-.06,3.58-.08,2,0,4-.08,6,0a7.74,7.74,0,0,1,1.77.39Zm56.15-139.67c0,2.34.08,4.72,0,7a10.24,10.24,0,0,1-.39,2.06l-.17-.76q.16-7.66.32-15.31l.21.32c0,.84-.1,1.68-.1,2.51C236.82,344.28,236.88,345.65,236.89,347.05ZM226.8,393.13l.16,3.32,0-.1,0-4.45a53.56,53.56,0,0,1,.12,10.81c-.15-1.75-.33-3.4-.44-5.29C226.61,396.64,226.72,395.36,226.8,393.13Zm-10,103.32c-.66,0-1.76-.07-3.67-.15l2.84-.16-.09,0-3.81,0a39.39,39.39,0,0,1,9.26-.12C219.82,496.17,218.4,496.34,216.78,496.45Zm10.69-13.88c0-1.1,0-2.19-.06-3.28,0-2.31,0-4.93-.13-6.87-.4-5.76-.71-11.6-.78-18.15,0-1.42-.09-2.83-.16-4.19-.1-2-.22-4-.37-6.5.78.59,1-.71,1-5.26,0-2.3-.08-4.6-.07-6.89q.05-11.2.15-22.39s.07-.07.11-.11c0,.37.06.75.06,1.14q.14,14,.26,28.06c0,.72-.15,1.48-.16,2.25,0,2.25,0,4.52,0,6.78.2-.2.42-.06.6-.66.47-1.56.91-3.43,1.4-5.28.43,3.49.43,3.46-.07,5.85a16.26,16.26,0,0,0-.14,1.95,67,67,0,0,0,.78,11.64,8.36,8.36,0,0,1,.31,1.94c0,3.31,0,6.67,0,10,0,6,.68,10.52,1.45,9,.23-.46.56,0,.87.79-1.64,0-3.26.09-4.75.22Zm3.8-145.85c0,.2,0,.39,0,.59a41.2,41.2,0,0,1-7.86.21A42,42,0,0,0,231.28,336.72Zm-37.43-12.57c.71.78,1.67,1.72,2.61,2.61a25.51,25.51,0,0,0,2.48,2.18,36.91,36.91,0,0,0,7.16,4.43c1.43.62,3,1.34,5.22,2.08,0,.47,0,.94-.05,1.42a41.72,41.72,0,0,1-12.4-7.31c-4.92-4.42-7.13-7.59-11.08-11.89ZM441.69,173.4A87,87,0,0,0,481,148.82l-.5.87a62.22,62.22,0,0,1-5.55,5.33,92.92,92.92,0,0,1-10,8c-6.06,3.84-12.51,7.49-19.27,9.62a28.32,28.32,0,0,1-6.16,1.52ZM166.66,64l-31.77.44-25.71-.15,19.9-.16-.62,0-26.68,0C127.9,63.72,154.45,63.68,166.66,64ZM27.07,101.18A35.85,35.85,0,0,1,61.16,69.42c15.26-.18,31,.09,46.75,0l23,0,108.46-.52L371.46,68c7.85.05,17.91-.52,24.34.31a42.42,42.42,0,0,1,7.57,1.9c1.61.52,2.24.63,1.38.12s0-.58,3.11,1.19c3.13,1.57,8.71,5.13,14.08,13.36a42.3,42.3,0,0,1,5.14,14,36.6,36.6,0,0,1-6.51,26.93c-6,7.38-13.11,14.75-19.62,22.13l-9.78,10.84c-3.91,0-7.23,0-9,0l-20.88-.24-19,0-34.72.12,13.49,1.07,11.83,1.14,47.37,0,9.07,0-2.54,2.82-28.64.22c-14.44.17-35.2.24-31.4.89,2.05.35-3.24.37-21.84.27H182.41l-15.89-.19,2.27-.1L68,164.94l-.43-.48L34.6,128.05c2.19,2.48,3.52,3.7,4.84,5.11-3-3.34-5.5-6.24-7.54-9l-2.5-4.27-1.66-4.19a15.73,15.73,0,0,1-.45-3.22,30.44,30.44,0,0,1-.38-4.38A35.39,35.39,0,0,1,27.07,101.18Zm367.64,62.41-4.58,0,2.47-2.79H397C396.33,161.69,395.54,162.62,394.71,163.58ZM62.43,165.25l-.19-.22C62.61,165.11,62.67,165.18,62.43,165.25Zm-.26-.3-2.39-2.72c-.19-.61-.84-1.62-.39-1.39,1.06.53-1.63-3.16,5.44,4.11Zm-32.29-32a43.47,43.47,0,0,1-8.8-15.6c-.64-2.41-1-4.56-1.31-6.24-.14-1.71-.12-3-.12-3.69,0-1.42.25-.61.71,3.24a43.49,43.49,0,0,0,8.53,18.25c4.85,5.74,10,10.75,15,16.1l9,9.93-1.41-1.06L62,165.33c-.59.08-1.65.15-3.05.21L42.38,147.1C38.3,142.51,34,137.78,29.88,132.92Zm55.2,70.89,61.26,68.44L144.9,271l-10-11.23L118.1,241.2,89.89,210c-3.18-3.54-5.36-6.32-8-9.45ZM61.54,168.38h3.29l5.38,5.83-3.4,0Zm8.75,5.81-5.11-5.83h2.94l3.08,3.26,2.39,2.55Zm280.85-6L338.85,168h-37a9.52,9.52,0,0,0,3.58.6l28.81,1.4c-19.06.43-18.85.43-31.91-.06l-10.63-.14c-19.62-.1-54.4.34-63.5.78-2.51.12-6.68.31-10.6.31l-54.49,0c-32.69,0-57.4.68-48.84,1.45,5.89.53-13.69,1.64-30.44,1.7l-7.66,0L71,168.35l55.57-.18,37.49-.13c31.41-.4,63.26-.71,99-.78l22.84-.16,35.44-.37c-3.2.78,3.89,1,28.69,1l33.17-.06-.47.52Zm35-.06.47-.53h4.59l-.46.52Zm14.23.9-.44-.11,1.69-1.89h.07C401.44,167.5,400.94,168.23,400.36,169ZM379.21,63.64c4.37.11,8.76-.11,13.62.42A40,40,0,0,1,426.16,86.4a10.36,10.36,0,0,0-1.44-3.88,42.84,42.84,0,0,0-10.44-12.07c-4.57-3.37-10-6.42-15.88-7.63l3.92.82c1.19.36,2.28.82,3.32,1.19l2.91,1.1,2.4,1.32A37,37,0,0,1,417.87,72a38.07,38.07,0,0,1,9.74,13,29.5,29.5,0,0,1,2.11,5,34.67,34.67,0,0,1,1.86,6.91,42.91,42.91,0,0,1-1.08,19.9c-2,7.1-7,13.54-11.53,18.58-8.94,10.14-16.86,19.26-20,23.13l-.19.23H394.4L422,127.56a37.12,37.12,0,0,0,7.55-23.75,38.45,38.45,0,0,0-4.8-17.64,39.5,39.5,0,0,0-14-14.91c1.74.55,1-.18-3.32-2.82a42.21,42.21,0,0,0-10-3.4c-4.55-1-10.29-.94-17.06-.89L339,64.22l-134.4-.15A3.05,3.05,0,0,1,204,64l6.84-.06ZM465,132a12.86,12.86,0,0,0,1.06-2,12.48,12.48,0,0,1-1.33,1.76,63.2,63.2,0,0,1-30.23,17.63,8.33,8.33,0,0,0,1.11-.57c1.72-.67,3.49-1.24,5.19-1.95l5-2.37C458,138,467.71,126.73,473.39,114.7c2.57-5.72,3.77-9.84,4.57-11.15s.81.12-.18,5.24c-.33,1.64-1.43,4.51-2.13,6.57A67.66,67.66,0,0,1,465,132ZM36.41,114.89c-1.59-3.15-1.89-6.69-2.18-10.16a28.59,28.59,0,0,1,7.92-19.35,27.33,27.33,0,0,1,19.1-8.51l1.38-.12H91c36.62,0,71.7.95,57.35,1.7l-8.65.18-66.43.68L63.6,79a34.93,34.93,0,0,0-8.44.75,26.08,26.08,0,0,0-12.28,7.68c.13.1-.91,1.43.64,0,2.41-2.5,3.77-2.74,2.66-1.94a25.45,25.45,0,0,0-7,10.12,23.76,23.76,0,0,0-1.23,13.42,24.91,24.91,0,0,0,6.58,12.19C54.38,132.17,64,142.92,72.77,153c3.51,4,7.51,8.77,6.7,8.07-4.83-4.23-10.64-9.54-16.87-15.34-2.68-2.5-8.79-9.15-20-21.68l-3.7-4.52C38.15,117.94,36.85,116.59,36.41,114.89Zm153-42c-3.05-.11-4.72-.28-3.3-.4l11.09-.66,91.73-.53c19.35-.14,35.16-.42,59-.27l26,0L387,71a54,54,0,0,1,5.7.25,22.13,22.13,0,0,1,5,.82,32.39,32.39,0,0,1,9.52,5.22,48.29,48.29,0,0,1,4.2,3.88,33.63,33.63,0,0,1,3.67,5.11c-5.24-7.77-15-13-26.23-13-13.63,0-27.93,0-42.19-.26-4.29-.08-20.47,0-25,.11-11,.29-20.51.62-26.61,1-5.84.33-14.31.5-29.12.39-17.45-.13-43,.1-47.54-.63C216.3,73.56,198.83,73.25,189.38,72.91ZM166.63,260.23l4.3,4.08-4-4.33L103.74,187l2.42,2.41,20.55,22.81c25.39,28.33,52,57.46,76.24,85.13,5.61,6.3,11,12.93,12.48,14a22.57,22.57,0,0,0,5.48,3.35c1,.47,1,.68-.3.55a16.23,16.23,0,0,1-7.32-3.42c-.54-.43-1.08-1-1.81-1.65l-3.23-3.5-6.53-7.18ZM212.43,383.5c.09-.73,0-2.47,0-3.75-.16,0-.36-.43-.48.1-.41,1.78-.61,1.3-.62-2.42,0-4.84-.34-10,.17-14.45.1-.89.3-1.92.43-1.74A34.4,34.4,0,0,1,214.2,365c.32.61.4,2.11.35,4.91-.12,6.67-.21,13.45-.2,20.17,0,6.1-.95,11.95-1.7,9.55a8.85,8.85,0,0,1-.18-1.44c-.23-3.61-.45-7.25-.68-11.07C212,386.14,212.24,385.08,212.43,383.5ZM220,432.9c-.11,2.73,0,6,0,8.56-.39.73-.76,1.39-1.14,2.17s-.68,1.57-1.07,2.47c0-3.87-.39-8.64.13-13.39a29.65,29.65,0,0,0-.11-4.16,28.49,28.49,0,0,0-1-4.43,13.51,13.51,0,0,1-.39-4.85c.13-2.91-.1-7.17.63-7.92.36-.36.67-3.28,1-4.85.11-.51.28-.79.4-.55a15.38,15.38,0,0,1,.66,1.85c.18,5.44.32,10.46.53,15.28C219.92,426.29,220.2,428.93,220,432.9Zm-1.34,77.55a6.5,6.5,0,0,1-1.24.18l-9.49.68c-.86-.18-1.77-.45-3.13-.63-.62-.09-2.12,0-3.21,0,0,.16-.37.36.09.48,1.53.41,1.11.61-2.08.62-4.15,0-8.57.34-12.39-.17-.76-.1-1.65-.3-1.5-.43A28.87,28.87,0,0,1,189,508.9c.52-.32,1.81-.4,4.21-.35,5.72.12,11.53.21,17.29.2C215.74,508.74,220.75,509.7,218.7,510.45Zm37.69-6.3c.62.34,1.35.68,2.12,1.07-3.32,0-7.41.39-11.48-.13a21.74,21.74,0,0,0-3.56.11,21.49,21.49,0,0,0-3.8,1,10,10,0,0,1-4.16.39c-2.49-.13-6.15.1-6.79-.63-.31-.36-2.81-.67-4.16-1-.44-.11-.67-.28-.47-.4a12.19,12.19,0,0,1,1.58-.66c4.66-.18,9-.32,13.1-.53a74.82,74.82,0,0,1,8.42-.27c2.34.11,5.13,0,7.33,0C255.16,503.4,255.73,503.78,256.39,504.15Zm-89.45,5.74,13.76,1.92-.49.18c-1.46,0-2.95,0-4.38,0-5.43-.11-11.05.13-16.3-.37-4.94-.47-6.68-1.53-2.73-2.16a17.79,17.79,0,0,1,2.63-.18c2.45,0,4.85.15,7.52.24l-.84.46Z"/></svg>
